<svg width="41" height="41" fill="none" xmlns="http://www.w3.org/2000/svg"><path d="M40.058 21.837c-.62-2.05-1.845-3.626-3.544-4.556a7.11 7.11 0 00-3.455-.864c-3.698 0-7.503 2.56-9.693 6.52a14.113 14.113 0 00-1.476 3.951c.245-1.53.687-3.524 1.453-4.955.849-1.524 3.103-5.574 3.18-8.192.075-2.624-2.322-6.509-4.197-9.633C21.27 2.35 20.206.687 20.206.08V0h-.426v.08c0 .606-.957 2.268-2.014 4.028-1.874 3.123-4.186 7.01-4.11 9.633.075 2.619 2.346 6.679 3.196 8.206.773 1.443 1.219 3.422 1.467 5.021a14.121 14.121 0 00-1.49-4.03c-2.19-3.962-5.993-6.521-9.691-6.521a7.11 7.11 0 00-3.454.864C1.985 18.21.759 19.789.137 21.85c-.559 2.432.629 5.13 2.955 6.715a7.325 7.325 0 002.632 1.128l.396.083-.156-.372c-.75-1.798-.592-3.522.426-4.614.67-.717 1.66-1.112 2.788-1.112 1.522 0 3.143.653 4.447 1.856.868.802 1.524 2.023 1.903 2.87H14.08c-.563 0-1.02.501-1.02 1.06 0 .56.457 1.06 1.02 1.06h1.81s.054.029.054.05v.058c0 1.22-1.025 2.214-2.252 2.214-1.227 0-2.238-.994-2.238-2.214 0-.91.567-1.741 1.421-2.067l.08-.118-.073-.466h-.09c-2.86 0-5.187 1.969-5.187 4.28 0 2.322 2.3 4.254 5.127 4.254 1.952 0 3.712-.822 4.592-2.194.645-1.094 1.057-2.524 1.195-3.796h.018l-.204 2.835c-.28.133-.75.553-1.148 1.88-.487 1.62-1.315 2.156-1.323 2.161l-.57.331h.69c.98 0 1.602-.303 1.975-.517.037-.02.085-.022.129-.046v.054c0 .895 1.65 3.26 1.838 3.526l.174.25.075-.245c.188-.266 1.738-2.623 1.738-3.517v-.04c.426.023.191-.004.229.018.371.214 1.093.517 2.074.517h.688l-.568-.333c-.009-.006-.835-.567-1.323-2.191-.398-1.327-.867-1.728-1.148-1.862l-.204-2.821h.018c.138 1.272.551 2.725 1.199 3.824.878 1.368 2.636 2.213 4.588 2.213 2.827 0 5.127-1.977 5.127-4.298 0-2.313-2.327-4.283-5.188-4.283h-.088l-.07.465.082.075a2.255 2.255 0 011.429 2.089c0 1.22-.917 2.225-2.144 2.225-1.226 0-2.144-.983-2.144-2.203v-.107h1.466c.562 0 1.02-.5 1.02-1.06s-.457-1.06-1.02-1.06H24.67c.379-.848 1.035-2.07 1.903-2.87 1.303-1.204 2.924-1.875 4.448-1.875 1.145 0 2.109.394 2.787 1.122 1.018 1.09 1.178 2.82.427 4.618l-.156.374.396-.082a7.33 7.33 0 002.632-1.127c2.326-1.584 3.513-4.285 2.95-6.728z" fill="#383838"/></svg>