<svg width="27" height="27" fill="none" xmlns="http://www.w3.org/2000/svg"><g filter="url(#filter0_d_2_726)"><path d="M15.325 19c.7 0 1.183-.565 1.515-1.426l5.918-15.476c.152-.403.242-.753.242-1.058C23 .403 22.596 0 21.95 0c-.295 0-.654.08-1.048.233L5.354 6.187C4.583 6.483 4 6.967 4 7.667c0 .86.637 1.183 1.515 1.443l6.474 1.9 1.883 6.403c.27.915.592 1.587 1.453 1.587zm-2.816-9.639L6.941 7.657c-.134-.035-.17-.08-.17-.134 0-.063.036-.117.152-.153L17.566 3.3c.762-.296 1.507-.655 2.323-1.031-.646.52-1.435 1.156-1.973 1.694l-5.407 5.398zm2.977 6.877c-.063 0-.107-.053-.143-.179l-1.704-5.568 5.398-5.407c.52-.529 1.183-1.345 1.703-2-.376.825-.744 1.579-1.04 2.35l-4.07 10.643c-.045.116-.081.161-.144.161z" fill="#383838"/><path d="M20.956.373h0L5.408 6.327 20.956.373zm0 0c.384-.149.724-.223.995-.223.291 0 .513.09.66.238.149.147.239.366.239.652 0 .278-.082.607-.232 1.005 0 0 0 0 0 0L16.7 17.52s0 0 0 0c-.327.85-.776 1.33-1.375 1.33-.383 0-.636-.145-.83-.393-.203-.258-.345-.63-.479-1.086l-1.883-6.402-.023-.079M20.956.373L12.11 10.89m0 0l-.079-.023m.079.023l-.079-.023m0 0l-6.473-1.9v-.001c-.438-.13-.79-.268-1.035-.468-.234-.193-.373-.446-.373-.832 0-.6.5-1.048 1.258-1.339l6.623 4.54zm.434-1.363l.086.027.064-.064 5.407-5.398h0c.531-.53 1.313-1.162 1.96-1.684l-.156-.253-.432.2c-.652.303-1.26.586-1.882.828 0 0 0 0 0 0L6.874 7.229a.405.405 0 00-.182.106.272.272 0 00-.071.188c0 .068.026.135.086.187.05.044.119.072.193.092l5.565 1.702zm1.068.88l-.064.065.027.086 1.702 5.565v.002a.52.52 0 00.09.188.251.251 0 00.39.01.567.567 0 00.091-.17h0L19.84 5.488c.225-.586.492-1.161.774-1.771.087-.186.174-.375.263-.57l-.254-.155c-.52.655-1.18 1.465-1.693 1.987 0 0 0 0 0 0l-5.397 5.407z" stroke="#383838" stroke-width=".3"/></g><defs><filter id="filter0_d_2_726" x="0" y="0" width="27" height="27" filterUnits="userSpaceOnUse" color-interpolation-filters="sRGB"><feFlood flood-opacity="0" result="BackgroundImageFix"/><feColorMatrix in="SourceAlpha" values="0 0 0 0 0 0 0 0 0 0 0 0 0 0 0 0 0 0 127 0" result="hardAlpha"/><feOffset dy="4"/><feGaussianBlur stdDeviation="2"/><feComposite in2="hardAlpha" operator="out"/><feColorMatrix values="0 0 0 0 0 0 0 0 0 0 0 0 0 0 0 0 0 0 0.25 0"/><feBlend in2="BackgroundImageFix" result="effect1_dropShadow_2_726"/><feBlend in="SourceGraphic" in2="effect1_dropShadow_2_726" result="shape"/></filter></defs></svg>