<svg width="19" height="19" fill="none" xmlns="http://www.w3.org/2000/svg"><mask id="a" fill="#fff"><path fill-rule="evenodd" clip-rule="evenodd" d="M16.232 2.762A9.401 9.401 0 0013.164.713 9.438 9.438 0 009.54 0C4.326 0 .081 4.224.079 9.415a9.38 9.38 0 001.262 4.707L0 19l5.015-1.31a9.5 9.5 0 004.52 1.146h.005c5.213 0 9.458-4.223 9.46-9.415a9.326 9.326 0 00-2.768-6.66zM9.54 17.247h-.003a7.876 7.876 0 01-4.002-1.091l-.287-.17-2.976.777.794-2.887-.187-.296a7.784 7.784 0 01-1.202-4.165C1.679 5.1 5.206 1.59 9.543 1.59a7.844 7.844 0 015.559 2.295 7.75 7.75 0 012.3 5.537c-.002 4.314-3.529 7.825-7.862 7.825zm4.313-5.861c-.237-.119-1.398-.687-1.615-.766-.216-.079-.373-.117-.531.118-.158.235-.612.764-.75.921-.138.158-.276.177-.512.06-.236-.118-.998-.367-1.9-1.168-.704-.624-1.178-1.394-1.316-1.63-.138-.236-.015-.363.104-.48.107-.105.236-.275.354-.412.118-.138.157-.235.236-.393.08-.157.04-.294-.02-.412-.059-.118-.532-1.276-.729-1.747-.19-.456-.385-.396-.53-.402a9.778 9.778 0 00-.453-.008.874.874 0 00-.631.293c-.217.236-.827.805-.827 1.963s.847 2.277.965 2.434c.118.157 1.667 2.533 4.038 3.552a13.77 13.77 0 001.348.496c.566.18 1.081.153 1.489.094.454-.067 1.398-.569 1.595-1.118.197-.55.197-1.02.138-1.12-.059-.098-.218-.158-.453-.275z"/></mask><path fill-rule="evenodd" clip-rule="evenodd" d="M16.232 2.762A9.401 9.401 0 0013.164.713 9.438 9.438 0 009.54 0C4.326 0 .081 4.224.079 9.415a9.38 9.38 0 001.262 4.707L0 19l5.015-1.31a9.5 9.5 0 004.52 1.146h.005c5.213 0 9.458-4.223 9.46-9.415a9.326 9.326 0 00-2.768-6.66zM9.54 17.247h-.003a7.876 7.876 0 01-4.002-1.091l-.287-.17-2.976.777.794-2.887-.187-.296a7.784 7.784 0 01-1.202-4.165C1.679 5.1 5.206 1.59 9.543 1.59a7.844 7.844 0 015.559 2.295 7.75 7.75 0 012.3 5.537c-.002 4.314-3.529 7.825-7.862 7.825zm4.313-5.861c-.237-.119-1.398-.687-1.615-.766-.216-.079-.373-.117-.531.118-.158.235-.612.764-.75.921-.138.158-.276.177-.512.06-.236-.118-.998-.367-1.9-1.168-.704-.624-1.178-1.394-1.316-1.63-.138-.236-.015-.363.104-.48.107-.105.236-.275.354-.412.118-.138.157-.235.236-.393.08-.157.04-.294-.02-.412-.059-.118-.532-1.276-.729-1.747-.19-.456-.385-.396-.53-.402a9.778 9.778 0 00-.453-.008.874.874 0 00-.631.293c-.217.236-.827.805-.827 1.963s.847 2.277.965 2.434c.118.157 1.667 2.533 4.038 3.552a13.77 13.77 0 001.348.496c.566.18 1.081.153 1.489.094.454-.067 1.398-.569 1.595-1.118.197-.55.197-1.02.138-1.12-.059-.098-.218-.158-.453-.275z" fill="#383838"/><path d="M9.54 0v.3V0zM.079 9.415h-.3.3zm1.262 4.707l.29.08.033-.122-.063-.108-.26.15zM0 19l-.29-.08-.137.502.503-.132L0 19zm5.015-1.31l.143-.264-.104-.056-.115.03.076.29zm4.52 1.146v.3-.3zM19 9.421h-.3.3zm-9.463 7.826v-.3.3zm-4.002-1.091l-.153.258.153-.258zm-.287-.17l.153-.258-.108-.064-.12.031.075.29zm-2.976.777l-.29-.08-.137.502.503-.132-.076-.29zm.794-2.887l.289.08.035-.128-.07-.112-.254.16zm-.187-.296l.254-.16-.254.16zM1.677 9.415h.3-.3zM9.543 1.59v.3-.3zm5.559 2.295l-.212.212.212-.212zm2.3 5.536h-.3.3zm-5.164 1.2l-.103.281.103-.282zm-3.694-.07l-.199.224.2-.224zm-1.21-2.11l-.211-.214.21.214zm.57-1.217l-.27.134.002.003.267-.137zm-.73-1.747l-.277.116.277-.116zm-.53-.402l.012-.3-.013.3zm-.453-.008l-.001-.3h-.007l.008.3zm-.631.293l.22.204.005-.005-.225-.199zm4.176 7.95l-.118.275.118-.276zm1.348.495l-.091.286.09-.286zm1.489.094l.043.296-.043-.296zm3.871-11.35A9.703 9.703 0 0013.278.437l-.229.555a9.101 9.101 0 012.97 1.982l.425-.423zM13.278.437A9.738 9.738 0 009.54-.3l.002.6a9.137 9.137 0 013.508.69l.23-.554zM9.54-.3C4.161-.3-.219 4.056-.221 9.415h.6C.381 4.391 4.49.3 9.54.3v-.6zM-.221 9.415a9.68 9.68 0 001.303 4.857l.52-.3A9.08 9.08 0 01.378 9.415h-.6zm1.273 4.628L-.289 18.92l.578.159 1.342-4.878-.579-.16zM.076 19.29l5.015-1.31-.152-.58-5.015 1.31.152.58zm4.796-1.336a9.8 9.8 0 004.664 1.182v-.6a9.2 9.2 0 01-4.378-1.11l-.286.528zm4.664 1.182h.004v-.6h-.004v.6zm.004 0c5.378 0 9.758-4.356 9.76-9.715h-.6c-.002 5.025-4.111 9.115-9.16 9.115v.6zm9.76-9.714a9.623 9.623 0 00-.737-3.721l-.554.23a9.024 9.024 0 01.691 3.49l.6.001zm-.737-3.721a9.657 9.657 0 00-2.12-3.153l-.423.427a9.056 9.056 0 011.99 2.955l.554-.23zM9.54 16.948h-.003v.6h.003v-.6zm-.003 0a7.576 7.576 0 01-3.85-1.05l-.305.516a8.175 8.175 0 004.155 1.133v-.6zm-3.85-1.05l-.286-.17-.306.516.287.17.306-.516zm-.515-.203l-2.976.778.152.58 2.976-.777-.152-.58zm-2.61 1.147l.793-2.887-.579-.159-.793 2.887.578.16zm.757-3.126l-.186-.296-.508.32.187.296.507-.32zm-.186-.296a7.484 7.484 0 01-1.156-4.005h-.6a8.084 8.084 0 001.248 4.325l.508-.32zM1.977 9.415C1.979 5.267 5.37 1.89 9.543 1.89v-.6c-4.502 0-8.164 3.643-8.166 8.125h.6zM9.544 1.89a7.544 7.544 0 012.895.57l.229-.554a8.144 8.144 0 00-3.125-.616v.6zm2.895.57c.918.38 1.75.936 2.45 1.637l.425-.424a8.114 8.114 0 00-2.646-1.767l-.229.555zm2.452 1.638a7.48 7.48 0 011.641 2.441l.554-.23a8.08 8.08 0 00-1.773-2.637l-.422.426zm1.641 2.441c.38.914.573 1.893.57 2.881l.6.002a8.048 8.048 0 00-.616-3.113l-.554.23zm.57 2.882c-.002 4.148-3.393 7.527-7.562 7.527v.6c4.498 0 8.16-3.645 8.162-8.126h-.6zm-3.115 1.696c-.12-.06-.471-.232-.82-.4a14.844 14.844 0 00-.827-.379l-.204.564c.09.033.417.186.772.356.346.167.694.338.811.396l.268-.537zm-1.647-.779c-.099-.036-.257-.094-.424-.075-.199.023-.347.142-.458.307l.498.335a.205.205 0 01.042-.05l-.005.002a.038.038 0 01-.008.002l.033.005c.029.007.064.019.117.038l.205-.564zm-.882.232c-.146.216-.585.73-.726.892l.45.395c.135-.153.603-.698.774-.952l-.498-.335zm-.726.892a.182.182 0 01-.036.034l.007-.002c.004 0-.026.005-.124-.044l-.267.537a.821.821 0 00.462.103.643.643 0 00.409-.233l-.451-.395zm-.153-.012c-.265-.132-.972-.357-1.836-1.123l-.398.448c.942.836 1.76 1.109 1.967 1.212l.267-.537zm-1.836-1.123c-.667-.593-1.122-1.33-1.255-1.557l-.518.303c.143.244.637 1.047 1.375 1.702l.398-.448zM7.488 8.77c-.019-.033-.02-.047-.02-.045 0 .004 0 .011-.002.017-.001.002 0-.004.014-.02a.896.896 0 01.064-.068l-.421-.427c-.052.05-.164.156-.22.304-.065.177-.038.362.067.542l.518-.303zm.056-.116c.117-.115.273-.316.371-.43l-.455-.39c-.138.16-.242.299-.337.393l.42.427zm.371-.43c.148-.172.205-.31.277-.453l-.537-.27c-.086.172-.107.23-.195.332l.455.391zm.277-.453c.14-.28.059-.526-.021-.683l-.535.273a.261.261 0 01.031.086.09.09 0 01-.012.055l.537.269zm-.02-.68v-.002a.451.451 0 01-.01-.021 4.899 4.899 0 01-.093-.217l-.201-.483L7.45 5.36l-.553.232c.098.234.265.64.415 1.004.147.355.286.69.322.76l.537-.267zm-.721-1.73c-.109-.26-.245-.437-.432-.525-.163-.077-.36-.06-.363-.06l-.026.599h.072a.665.665 0 01.059.003h.003l.008.006a.18.18 0 01.026.027c.024.03.06.085.1.182l.553-.232zm-.796-.586c-.155-.006-.31-.009-.465-.008l.002.6c.146 0 .293.002.439.008l.024-.6zm-.472-.008c-.16.004-.319.041-.465.109l.253.544a.574.574 0 01.228-.053l-.016-.6zm-.465.109a1.17 1.17 0 00-.383.286l.45.397a.57.57 0 01.186-.139l-.253-.544zm-.379.281c-.218.238-.906.882-.906 2.166h.6c0-1.033.532-1.525.748-1.76l-.442-.406zm-.906 2.166c0 .646.234 1.265.47 1.728.24.468.493.804.555.886l.48-.36c-.056-.075-.285-.378-.5-.798-.217-.425-.405-.945-.405-1.456h-.6zm1.025 2.614c.102.137 1.7 2.59 4.16 3.648l.237-.551c-2.283-.982-3.784-3.28-3.917-3.457l-.48.36zm4.16 3.648a14.32 14.32 0 001.375.506l.182-.571c-.339-.108-.769-.25-1.32-.486l-.237.55zm1.375.506c.626.199 1.192.168 1.623.104l-.087-.593c-.384.056-.848.078-1.354-.083l-.182.572zm1.624.104c.283-.041.673-.206 1.011-.421.331-.212.69-.52.823-.892l-.565-.203c-.064.178-.276.395-.58.589-.297.189-.606.309-.777.334l.088.593zm1.834-1.313c.107-.3.162-.58.181-.804.01-.112.011-.214.005-.3a.633.633 0 00-.073-.27l-.515.308c-.024-.04-.016-.055-.01.008.003.047.003.115-.005.202a2.667 2.667 0 01-.148.653l.565.203zm.113-1.374a.693.693 0 00-.274-.24c-.082-.045-.203-.1-.303-.15l-.268.536c.135.068.211.1.283.14.07.039.062.046.047.022l.515-.309z" fill="#383838" mask="url(#a)"/></svg>